<svg width="19" height="19" fill="none" xmlns="http://www.w3.org/2000/svg"><path d="M3.875 18.396H.477V5.716h3.398v12.68zM.277 2.436c0-.509.168-.927.504-1.255C1.125.853 1.59.69 2.176.69c.578 0 1.039.164 1.383.492.343.328.515.746.515 1.254 0 .516-.176.938-.527 1.266-.344.328-.8.492-1.371.492-.57 0-1.031-.164-1.383-.492-.344-.328-.516-.75-.516-1.266zm9.996 3.28l.105 1.465c.907-1.133 2.121-1.7 3.645-1.7 1.344 0 2.344.395 3 1.185.656.789.992 1.968 1.008 3.539v8.191h-3.387v-8.11c0-.718-.156-1.238-.469-1.558-.312-.328-.832-.492-1.558-.492-.953 0-1.668.406-2.145 1.219v8.941H7.085V5.716h3.188z" fill="#000"/></svg>