<svg width="237" height="60" fill="none" xmlns="http://www.w3.org/2000/svg"><path d="M31.172 18.204a46.812 46.812 0 00-28.956-.782 2.888 2.888 0 00-2.11 3.581c.519 2.085 1.277 4.48 2.187 6.652.015.05.04.026.04-.024-.132-1.019.651-2.305 2.187-2.773a35.848 35.848 0 0122.644.3 2.136 2.136 0 002.73-1.383c.91-2.93 1.278-4.918 1.369-5.416.015-.093-.067-.128-.091-.154zM8.669 24.65c-1.118.234-2.664.6-3.824.986-2.319.8-2.211 3.622-.976 4.522.09-.523.651-1.235 1.276-1.476 2.316-.91 4.802-1.454 7.315-1.678-1.277-.519-2.523-1.262-3.774-2.355l-.017.001zm18.464 5.65a27.544 27.544 0 00-21.418-.848c-1.104.417-1.795 1.76-1.104 3.036a49.655 49.655 0 004.1 6.25c-.218-.757.168-2.16 1.653-2.62 4.105-1.26 8.413-.726 11.276.433a2.174 2.174 0 002.595-.833 51.821 51.821 0 002.98-5.234c.04-.08 0-.141-.082-.183zM20.48 40.417a12.854 12.854 0 01-3.255-2.344c-.442-.443-1.094-1.078-1.78-1.836-1.568 0-3.09.157-4.716.677-1.51.472-1.652 2.217-.991 3.128 1.118 1.393 1.902 2.145 3.153 3.438a3.57 3.57 0 004.974.024c.976-.976 1.577-1.628 2.68-2.879.066-.066.04-.182-.066-.208zM66.264 15.68v7.04h-11.12v3.92h8v6.68h-8V44h-8.88V15.68h20zm22.368 24.04h-9.44l-1.4 4.28h-9.32l10.36-28.32h10.24L99.392 44h-9.36l-1.4-4.28zm-2.16-6.68l-2.56-7.88-2.56 7.88h5.12zm27.218 11.24c-3.387 0-6.187-.787-8.4-2.36-2.187-1.6-3.373-3.933-3.56-7h9.44c.133 1.627.853 2.44 2.16 2.44.48 0 .88-.107 1.2-.32.347-.24.52-.6.52-1.08 0-.667-.36-1.2-1.08-1.6-.72-.427-1.84-.907-3.36-1.44-1.813-.64-3.32-1.267-4.52-1.88-1.173-.613-2.187-1.507-3.04-2.68-.853-1.173-1.267-2.68-1.24-4.52 0-1.84.467-3.4 1.4-4.68.96-1.307 2.253-2.293 3.88-2.96 1.653-.667 3.507-1 5.56-1 3.467 0 6.213.8 8.24 2.4 2.053 1.6 3.133 3.853 3.24 6.76h-9.56c-.027-.8-.227-1.373-.6-1.72a1.926 1.926 0 00-1.36-.52c-.373 0-.68.133-.92.4-.24.24-.36.587-.36 1.04 0 .64.347 1.173 1.04 1.6.72.4 1.853.893 3.4 1.48 1.787.667 3.253 1.307 4.4 1.92a9.29 9.29 0 013.04 2.56c.853 1.093 1.28 2.467 1.28 4.12 0 1.733-.427 3.293-1.28 4.68-.853 1.36-2.093 2.427-3.72 3.2-1.627.773-3.56 1.16-5.8 1.16zm41.32-28.6V44h-8.88V32.96h-8.44V44h-8.88V15.68h8.88v10.2h8.44v-10.2h8.88zm14.075 0V44h-8.88V15.68h8.88zm19.011 28.6c-2.667 0-5.12-.627-7.36-1.88-2.214-1.253-3.974-2.987-5.28-5.2-1.307-2.213-1.96-4.707-1.96-7.48 0-2.773.653-5.267 1.96-7.48 1.306-2.213 3.066-3.933 5.28-5.16 2.24-1.253 4.693-1.88 7.36-1.88 2.666 0 5.106.627 7.32 1.88 2.213 1.227 3.96 2.947 5.24 5.16 1.306 2.213 1.96 4.707 1.96 7.48 0 2.773-.654 5.267-1.96 7.48a13.739 13.739 0 01-5.28 5.2c-2.214 1.253-4.64 1.88-7.28 1.88zm0-8.28c1.76 0 3.12-.56 4.08-1.68.96-1.147 1.44-2.68 1.44-4.6 0-1.947-.48-3.48-1.44-4.6-.96-1.147-2.32-1.72-4.08-1.72-1.787 0-3.16.573-4.12 1.72-.96 1.12-1.44 2.653-1.44 4.6 0 1.92.48 3.453 1.44 4.6.96 1.12 2.333 1.68 4.12 1.68zm46.083 8h-8.88l-9.4-14.24V44h-8.88V15.68h8.88l9.4 14.48V15.68h8.88V44z" fill="#000"/></svg>