<svg width="188" height="30" fill="none" xmlns="http://www.w3.org/2000/svg"><path d="M20 .68v7.04H8.88v3.92h8v6.68h-8V29H0V.68h20zm22.368 24.04h-9.44l-1.4 4.28h-9.32L32.568.68h10.24L53.128 29h-9.36l-1.4-4.28zm-2.16-6.68l-2.56-7.88-2.56 7.88h5.12zm27.217 11.24c-3.386 0-6.186-.787-8.4-2.36-2.186-1.6-3.373-3.933-3.56-7h9.44c.134 1.627.854 2.44 2.16 2.44.48 0 .88-.107 1.2-.32.347-.24.52-.6.52-1.08 0-.667-.36-1.2-1.08-1.6-.72-.427-1.84-.907-3.36-1.44-1.813-.64-3.32-1.267-4.52-1.88-1.173-.613-2.186-1.507-3.04-2.68-.853-1.173-1.266-2.68-1.24-4.52 0-1.84.467-3.4 1.4-4.68.96-1.307 2.254-2.293 3.88-2.96 1.654-.667 3.507-1 5.56-1 3.467 0 6.214.8 8.24 2.4 2.054 1.6 3.134 3.853 3.24 6.76h-9.56c-.026-.8-.226-1.373-.6-1.72a1.926 1.926 0 00-1.36-.52c-.373 0-.68.133-.92.4-.24.24-.36.587-.36 1.04 0 .64.347 1.173 1.04 1.6.72.4 1.854.893 3.4 1.48 1.787.667 3.254 1.307 4.4 1.92a9.29 9.29 0 013.04 2.56c.854 1.093 1.28 2.467 1.28 4.12 0 1.733-.426 3.293-1.28 4.68-.853 1.36-2.093 2.427-3.72 3.2-1.626.773-3.56 1.16-5.8 1.16zm41.32-28.6V29h-8.88V17.96h-8.44V29h-8.88V.68h8.88v10.2h8.44V.68h8.88zm14.076 0V29h-8.88V.68h8.88zm19.01 28.6c-2.666 0-5.12-.627-7.36-1.88-2.213-1.253-3.973-2.987-5.28-5.2-1.306-2.213-1.96-4.707-1.96-7.48 0-2.773.654-5.267 1.96-7.48 1.307-2.213 3.067-3.933 5.28-5.16 2.24-1.253 4.694-1.88 7.36-1.88 2.667 0 5.107.627 7.32 1.88 2.214 1.227 3.96 2.947 5.24 5.16 1.307 2.213 1.96 4.707 1.96 7.48 0 2.773-.653 5.267-1.96 7.48a13.739 13.739 0 01-5.28 5.2c-2.213 1.253-4.64 1.88-7.28 1.88zm0-8.28c1.76 0 3.12-.56 4.08-1.68.96-1.147 1.44-2.68 1.44-4.6 0-1.947-.48-3.48-1.44-4.6-.96-1.147-2.32-1.72-4.08-1.72-1.786 0-3.16.573-4.12 1.72-.96 1.12-1.44 2.653-1.44 4.6 0 1.92.48 3.453 1.44 4.6.96 1.12 2.334 1.68 4.12 1.68zm46.084 8h-8.88l-9.4-14.24V29h-8.88V.68h8.88l9.4 14.48V.68h8.88V29z" fill="#fff"/></svg>