<svg width="31" height="26" fill="none" xmlns="http://www.w3.org/2000/svg"><path d="M1.107 4.776h28.786C30.504 4.776 31 4.3 31 3.714V1.061C31 .475 30.504 0 29.893 0H1.107C.496 0 0 .475 0 1.061v2.653C0 4.3.496 4.776 1.107 4.776zm0 10.612h28.786c.611 0 1.107-.475 1.107-1.062v-2.652c0-.587-.496-1.062-1.107-1.062H1.107c-.611 0-1.107.475-1.107 1.062v2.652c0 .587.496 1.062 1.107 1.062zm0 10.612h28.786c.611 0 1.107-.475 1.107-1.061v-2.653c0-.586-.496-1.062-1.107-1.062H1.107C.496 21.224 0 21.7 0 22.287v2.653C0 25.525.496 26 1.107 26z" fill="#000"/></svg>