<svg width="25" height="21" fill="none" xmlns="http://www.w3.org/2000/svg"><path d="M22.43 5.456c.016.222.016.444.016.667 0 6.773-5.155 14.578-14.578 14.578-2.903 0-5.6-.841-7.868-2.3.412.047.809.063 1.237.063 2.396 0 4.6-.81 6.361-2.19a5.133 5.133 0 01-4.79-3.553c.317.048.634.08.967.08.46 0 .92-.064 1.349-.175a5.124 5.124 0 01-4.109-5.028v-.064a5.16 5.16 0 002.316.65 5.12 5.12 0 01-2.284-4.266c0-.952.254-1.825.698-2.586A14.564 14.564 0 0012.31 6.694a5.784 5.784 0 01-.127-1.174A5.121 5.121 0 0117.306.396c1.476 0 2.808.619 3.744 1.618A10.088 10.088 0 0024.302.777 5.11 5.11 0 0122.049 3.6 10.271 10.271 0 0025 2.807a11.016 11.016 0 01-2.569 2.65z" fill="#000"/></svg>